<?xml version="1.0" encoding="UTF-8" standalone="no"?>
<svg
   version="1.0"
   width="1024pt"
   height="1024pt"
   viewBox="0 0 1024 1024"
   preserveAspectRatio="xMidYMid"
   id="svg1"
   xmlns:xlink="http://www.w3.org/1999/xlink"
   xmlns="http://www.w3.org/2000/svg"
   xmlns:svg="http://www.w3.org/2000/svg">
  <defs
     id="defs1">
    <linearGradient
       id="linearGradient36652">
      <stop
         style="stop-color:#ed54e6;stop-opacity:1;"
         offset="0.24504206"
         id="stop36652" />
      <stop
         style="stop-color:#3c28ea;stop-opacity:1;"
         offset="0.50378102"
         id="stop36654" />
      <stop
         style="stop-color:#74e2f0;stop-opacity:1;"
         offset="0.75130212"
         id="stop36653" />
    </linearGradient>
    <linearGradient
       xlink:href="#linearGradient36652"
       id="linearGradient36653"
       x1="0"
       y1="0"
       x2="1016.5353"
       y2="999.92773"
       gradientUnits="userSpaceOnUse" />
    <mask
       maskUnits="userSpaceOnUse"
       id="mask36662">
      <g
         id="g36670"
         style="display:inline;fill:#ffffff;fill-opacity:1">
        <path
           style="fill:#ffffff;fill-opacity:1;stroke:none;stroke-width:1.65295"
           d="m 330.31669,619.56888 c -4.6528,-1.23226 -4.73905,-4.94777 -0.45779,-19.72151 8.83354,-30.48269 25.79467,-67.74079 44.8933,-98.61601 38.65974,-62.4981 98.71827,-116.14144 166.01982,-148.28632 19.45331,-9.29138 62.25631,-23.95015 92.05015,-31.52448 16.14676,-4.10491 19.80009,-5.63208 22.57089,-9.43513 7.26843,-9.97626 16.39992,-17.04483 25.39869,-19.66085 17.36039,-5.0468 32.50311,-0.2326 45.30693,14.40409 l 7.42403,8.48678 22.92065,5.50294 c 61.57963,14.78442 109.58121,37.57682 157.23969,74.66149 15.07002,11.72649 33.90721,28.69948 32.93295,29.67376 -0.34279,0.34277 -6.23007,-1.9319 -13.08287,-5.05482 -33.54657,-15.28767 -138.03882,-46.58775 -188.45375,-56.4503 l -14.44928,-2.82668 -7.26323,6.69501 c -11.30489,10.42048 -16.71984,12.702 -29.95605,12.62158 -13.08309,-0.0795 -18.03827,-2.11891 -29.72564,-12.23426 -4.2167,-3.64952 -8.31503,-6.63549 -9.10742,-6.63549 -3.83735,0 -41.08033,10.46313 -58.69075,16.48871 -37.62124,12.87248 -78.94328,35.70798 -109.92091,60.7448 -16.93403,13.68647 -46.86759,44.67484 -59.0836,61.16564 -20.13232,27.17727 -42.38694,69.18951 -53.21097,100.45154 -6.76172,19.52926 -8.28302,20.71231 -26.32277,20.47008 -7.85409,-0.10545 -15.51852,-0.51972 -17.03207,-0.92057 z"
           id="path36662"
           transform="scale(0.75)" />
        <path
           style="fill:#ffffff;fill-opacity:1;stroke:none;stroke-width:1.65295"
           d="m 1011.889,615.99752 c -2.4302,-2.57603 -9.2533,-13.17555 -15.16261,-23.55448 -9.30142,-16.33683 -13.51862,-21.65286 -31.40597,-39.5891 -22.71351,-22.77558 -35.88698,-32.33278 -64.28432,-46.63753 -58.14405,-29.28921 -122.2413,-36.39239 -196.88114,-21.81813 -11.364,2.21895 -22.2998,4.03733 -24.30177,4.04085 -5.05108,0.009 -29.22353,-27.82108 -26.7517,-30.79945 4.01824,-4.84169 40.94461,-14.61492 73.95039,-19.57231 21.8713,-3.28502 71.75465,-3.30996 96.44376,-0.0482 45.94663,6.07013 96.81987,26.16307 135.14227,53.37591 19.91074,14.13867 48.92669,43.11695 63.32119,63.23903 12.3458,17.25819 28.5293,47.78334 30.2795,57.11323 0.8029,4.27951 0.4716,6.40308 -1.1603,7.43662 -1.2563,0.79565 -9.5936,1.45803 -18.5275,1.47195 -15.7093,0.0245 -16.3886,-0.12868 -20.6618,-4.65837 z"
           id="path36663"
           transform="scale(0.75)" />
        <path
           style="fill:#ffffff;fill-opacity:1;stroke:none;stroke-width:1.65295"
           d="m 580.69156,549.47714 c -8.19939,-4.05866 -19.63867,-15.96587 -22.94836,-23.88706 -1.31183,-3.13965 -2.3465,-10.95965 -2.33786,-17.66935 0.0133,-10.35153 0.71425,-13.25536 5.00577,-20.73855 5.34505,-9.32024 14.74516,-17.20184 24.26201,-20.34269 3.42534,-1.13046 10.95326,-1.61541 18.02819,-1.16137 10.50519,0.67419 13.36599,1.58883 21.1642,6.76655 11.87712,7.88597 17.58547,17.56212 18.72335,31.73774 1.29935,16.18713 -1.72309,24.60496 -12.83963,35.7599 -10.42809,10.46411 -16.59525,12.94512 -32.20928,12.95758 -6.72276,0.005 -12.15036,-1.09725 -16.84839,-3.42275 z"
           id="path36664"
           transform="scale(0.75)" />
        <path
           style="fill:#ffffff;fill-opacity:1;stroke:none;stroke-width:1.65295"
           d="m 488.86794,828.21097 c -21.06011,-12.00326 -33.67372,-20.88008 -36.52251,-25.7027 -4.18439,-7.08362 -5.98156,-24.46173 -6.01729,-58.18546 -0.0256,-24.20718 0.68448,-34.62538 3.27518,-48.05008 6.9612,-36.07213 20.86473,-70.64188 40.14832,-99.82485 10.87803,-16.46235 29.62791,-38.80845 37.94926,-45.2279 l 4.54352,-3.50507 12.39918,11.14126 c 6.81955,6.12769 12.39918,12.02949 12.39918,13.11511 0,1.08563 -7.4395,11.92334 -16.53221,24.08381 -46.80407,62.59512 -60.78109,119.47287 -47.98486,195.26842 1.95465,11.57791 4.94621,26.0718 6.64791,32.20868 1.7017,6.13688 2.92804,11.3239 2.7252,11.52675 -0.20284,0.20284 -6.06674,-2.87875 -13.03088,-6.84797 z"
           id="path36665"
           transform="scale(0.75)" />
        <path
           style="fill:#ffffff;fill-opacity:1;stroke:none;stroke-width:1.65295"
           d="m 314.23048,737.66038 c -16.4129,-7.952 -25.81053,-23.20324 -25.73827,-41.77015 0.053,-13.60372 3.80682,-22.15172 14.12571,-32.16586 11.54567,-11.20469 31.39176,-14.89017 45.55366,-8.45945 9.12234,4.14233 19.86597,14.0592 24.19179,22.33016 4.69727,8.98115 4.85299,28.52559 0.30338,38.07569 -4.10088,8.60816 -14.21767,18.58201 -22.80178,22.47961 -9.62728,4.37126 -26.06749,4.14519 -35.63449,-0.49 z"
           id="path36666"
           transform="scale(0.75)" />
        <path
           style="fill:#ffffff;fill-opacity:1;stroke:none;stroke-width:1.65295"
           d="M 566.13398,948.68762 C 522.19603,942.72772 482.2952,930.08371 448.70756,911.47679 403.14255,886.23466 354.57298,837.095 333.28061,794.69502 c -9.95436,-19.82235 -9.12866,-20.73885 17.9704,-19.94661 l 16.52946,0.48323 12.23118,18.1824 c 14.43037,21.45165 45.8007,53.64249 64.03652,65.71145 12.66694,8.38332 45.24468,25.19874 60.10034,31.02157 17.15733,6.72499 51.79245,14.57671 73.16345,16.58603 28.72906,2.70113 72.62327,1.19881 97.87561,-3.34989 l 19.7945,-3.56558 13.8908,14.1428 c 11.189,11.392 13.51698,14.59322 11.96891,16.45853 -2.33682,2.81569 -23.75137,9.68515 -43.96042,14.10184 -30.31282,6.62488 -79.0949,8.46029 -110.74738,4.16683 z"
           id="path36667"
           transform="scale(0.75)" />
        <path
           style="fill:#ffffff;fill-opacity:1;stroke:none;stroke-width:1.65295"
           d="m 756.57332,913.00032 c -8.02227,-2.25335 -23.93598,-16.74458 -27.85034,-25.36087 -4.35457,-9.5853 -4.17034,-28.94327 0.36461,-38.31122 4.11316,-8.49666 16.06945,-19.46782 24.10651,-22.12029 5.50195,-1.81581 20.01187,-1.40597 36.15051,1.02108 6.05866,0.91114 7.58429,0.3192 16.52946,-6.41328 15.09076,-11.35791 45.74423,-43.66123 55.25231,-58.22615 23.22571,-35.57822 33.61775,-71.17072 33.5209,-114.80831 -0.0571,-25.72319 -2.92241,-45.1978 -10.94396,-74.38257 -3.12344,-11.364 -5.45079,-20.89779 -5.17189,-21.18619 2.01004,-2.07855 44.46354,23.396 48.51711,29.11307 6.759,9.53271 9.34627,28.1847 9.3329,67.28216 -0.0135,39.54151 -1.51699,50.48381 -10.62173,77.30527 -16.8883,49.75093 -54.02995,98.90214 -96.39409,127.56262 l -14.46328,9.78479 -0.0363,7.5534 c -0.12914,26.87051 -31.1726,48.80414 -58.29272,41.18649 z"
           id="path36668"
           transform="scale(0.75)" />
        <path
           style="fill:#ffffff;fill-opacity:1;stroke:none;stroke-width:1.65295"
           d="m 1042.6879,740.68716 c -8.1772,-2.20143 -10.345,-3.51364 -19.2487,-11.65178 -22.683,-20.73254 -16.5863,-58.60747 11.7031,-72.70469 20.4748,-10.20301 45.9957,-1.38892 58.6881,20.26895 3.9086,6.66965 4.4909,9.38188 4.3312,20.17621 -0.1344,9.08615 -1.1165,14.29766 -3.6186,19.20219 -5.0122,9.82482 -18.7917,21.53737 -28.8535,24.52539 -9.9046,2.94136 -12.6762,2.96349 -23.0016,0.18373 z"
           id="path36669"
           transform="scale(0.75)" />
        <path
           style="fill:#ffffff;fill-opacity:1;stroke:none;stroke-width:1.65295"
           d="m 674.16745,1085.1382 c -3.31088,-1.7494 -9.71046,-7.3215 -14.22129,-12.3825 l -8.20148,-9.2019 -25.36059,-5.9021 c -62.13616,-14.4607 -110.68239,-37.9845 -159.01252,-77.05201 -14.50113,-11.72193 -17.2018,-15.13412 -8.41945,-10.63768 13.94189,7.13808 83.42683,25.69494 155.11729,41.42609 42.20502,9.2611 40.90208,9.2223 50.07317,1.4932 11.64358,-9.8128 16.95989,-12.0274 28.77291,-11.9862 11.6736,0.041 19.93549,3.2925 29.77834,11.7204 l 6.14178,5.2589 18.65241,-3.7026 c 52.2518,-10.3723 106.7671,-35.65494 149.05309,-69.12648 44.47871,-35.2072 89.65362,-98.09867 108.74079,-151.38639 2.8825,-8.0474 6.2809,-15.67161 7.552,-16.9427 2.6473,-2.64734 34.3024,-3.31021 38.2647,-0.80128 3.4912,2.21067 1.1916,12.89601 -7.501,34.85503 -49.35878,124.68808 -149.41961,212.58892 -277.45716,243.73882 -13.63681,3.3177 -26.42383,6.3675 -28.41562,6.7775 -1.99178,0.41 -6.00326,4.062 -8.9144,8.1157 -5.51603,7.681 -13.92022,14.3356 -21.87041,17.3176 -7.73939,2.9028 -25.94836,2.0242 -32.77256,-1.5814 z"
           id="path36670"
           transform="scale(0.75)" />
      </g>
    </mask>
  </defs>
  <rect
     style="fill:url(#linearGradient36653);fill-opacity:1;fill-rule:nonzero;stroke:none;stroke-width:0.75;stroke-opacity:1"
     id="rect818"
     width="1024"
     height="1024"
     x="0"
     y="0"
     mask="url(#mask36662)"
     transform="matrix(1.6862358,0,0,1.7107959,-364.84889,-372.59433)" />
</svg>
